<?xml version="1.0" standalone="no"?>
<!DOCTYPE svg PUBLIC "-//W3C//DTD SVG 20010904//EN"
 "http://www.w3.org/TR/2001/REC-SVG-20010904/DTD/svg10.dtd">
<svg version="1.0" xmlns="http://www.w3.org/2000/svg"
 width="231.000000pt" height="218.000000pt" viewBox="0 0 231.000000 218.000000"
 preserveAspectRatio="xMidYMid meet">

<g transform="translate(0.000000,218.000000) scale(0.100000,-0.100000)"
fill="#000000" stroke="none">
<path d="M980 2126 c-249 -52 -451 -173 -599 -359 -221 -278 -273 -634 -140
-951 35 -85 28 -82 147 -49 46 13 50 16 37 29 -8 9 -15 22 -15 30 0 8 -9 41
-20 74 -29 86 -37 263 -16 360 18 82 87 232 143 307 140 188 336 324 522 360
l81 16 0 59 c0 55 -1 58 -25 58 -14 0 -25 5 -25 10 0 6 27 10 60 10 33 0 60
-4 60 -10 0 -5 -9 -10 -19 -10 -16 0 -20 -9 -23 -60 l-3 -60 33 0 32 0 0 54
c0 59 7 86 22 86 5 0 8 -31 7 -72 l-2 -73 34 -3 c32 -3 33 -3 16 15 -23 26
-22 78 3 103 22 22 60 26 90 10 24 -13 35 -63 19 -92 -16 -30 -28 -37 -64 -39
-27 -1 -25 -2 15 -13 293 -83 502 -298 575 -594 35 -146 1 -395 -68 -495 -10
-16 -18 -30 -16 -32 6 -5 186 -55 201 -55 19 0 74 150 94 256 21 115 15 295
-15 409 -90 341 -371 620 -711 706 -109 27 -334 35 -430 15z m74 -118 c29 -52
31 -87 4 -60 -19 19 -56 14 -69 -9 -28 -53 -31 36 -3 119 8 27 38 5 68 -50z
m-133 -14 c33 -92 22 -104 -43 -52 -37 29 -40 30 -34 10 3 -12 8 -31 11 -41 3
-11 1 -22 -5 -26 -12 -7 -35 42 -45 98 -9 47 3 48 58 5 33 -26 39 -29 33 -13
-4 11 -10 33 -13 49 -10 48 18 26 38 -30z m583 -27 l7 -42 20 44 c14 31 23 41
30 34 14 -14 -31 -128 -51 -128 -10 0 -18 18 -25 55 l-10 54 -17 -42 c-16 -41
-38 -57 -38 -27 0 8 12 40 26 72 23 52 27 56 38 40 8 -9 17 -36 20 -60z m-746
1 c7 -7 12 -19 12 -27 0 -9 9 -27 20 -41 11 -14 20 -28 20 -32 0 -13 -23 -9
-40 7 -27 24 -52 9 -44 -27 10 -46 -16 -31 -48 28 -15 27 -28 52 -28 56 0 8
69 47 86 48 5 0 15 -5 22 -12z m918 -31 c9 -25 -20 -132 -36 -132 -9 0 -14 7
-12 17 3 21 -32 41 -58 33 -36 -11 -21 18 28 57 51 39 70 46 78 25z m-1081
-71 c-37 -30 -25 -46 15 -23 38 23 48 5 13 -21 -22 -17 -26 -23 -16 -33 10
-10 19 -9 42 9 37 27 56 9 20 -20 -54 -42 -55 -42 -99 13 -22 28 -40 54 -40
57 0 4 17 19 38 34 47 34 71 19 27 -16z m1175 6 c0 -5 -15 -26 -34 -48 l-34
-39 25 -26 c14 -16 20 -29 15 -33 -12 -7 -72 40 -72 56 0 18 70 98 86 98 8 0
14 -4 14 -8z m-1260 -70 c0 -4 -6 -14 -12 -20 -10 -10 -3 -21 32 -51 39 -34
43 -40 27 -46 -13 -6 -29 2 -56 29 -33 32 -39 35 -51 22 -7 -9 -16 -13 -21
-10 -11 7 51 84 69 84 6 0 12 -4 12 -8z m1416 -87 c16 -25 13 -55 -6 -55 -5 0
-10 8 -10 19 0 20 -23 45 -33 35 -3 -4 0 -22 9 -42 13 -32 13 -37 -2 -54 -24
-25 -49 -23 -73 8 -25 32 -26 47 -6 64 15 13 20 5 16 -26 -2 -15 27 -39 36
-30 4 3 1 22 -6 42 -10 27 -10 38 -1 49 19 23 58 18 76 -10z m-1471 -52 c31
-20 54 -41 52 -47 -3 -7 -27 -10 -61 -8 -31 1 -56 0 -56 -2 0 -2 16 -14 35
-26 35 -22 46 -40 22 -40 -20 0 -118 70 -112 80 4 6 32 10 63 10 l57 0 -38 26
c-21 14 -35 29 -32 35 9 13 10 13 70 -28z m1547 -70 c23 -21 25 -83 2 -83 -10
0 -15 8 -14 23 4 41 0 47 -28 47 -54 0 -79 -60 -31 -75 28 -9 25 -38 -3 -30
-51 15 -67 89 -25 118 29 21 76 21 99 0z m-1572 -99 c0 -19 -2 -18 -70 16 -58
29 -68 39 -54 53 10 10 124 -54 124 -69z m1635 -24 c3 -5 -6 -15 -20 -22 -16
-7 -24 -17 -20 -26 3 -7 5 -18 5 -24 0 -6 12 -8 31 -4 25 5 30 3 27 -11 -2
-11 -24 -23 -63 -35 -66 -19 -96 -9 -46 16 26 14 29 20 22 39 -9 23 -12 24
-49 12 -19 -6 -23 -4 -20 10 2 11 23 24 58 35 68 22 68 22 75 10z m-1745 -71
c0 -4 14 -10 30 -14 58 -13 33 -30 -46 -32 -53 -1 -74 2 -71 10 2 7 16 13 30
15 32 4 34 16 6 36 -12 8 -18 19 -15 25 7 11 66 -25 66 -40z m-80 -98 c0 -21
19 -31 55 -31 34 0 55 -10 55 -26 0 -10 -8 -13 -22 -10 -82 17 -90 16 -95 -4
-8 -31 -23 -23 -23 13 0 41 10 77 21 77 5 0 9 -9 9 -19z m1859 -7 c27 -35 26
-59 -4 -89 -47 -48 -125 -19 -125 46 0 62 91 91 129 43z m-1750 -130 c1 -1 0
-8 -4 -14 -5 -8 -28 -9 -74 -4 -73 7 -76 8 -66 24 6 9 132 4 144 -6z m1757
-39 c28 -29 25 -68 -8 -97 -65 -57 -159 41 -98 102 28 28 75 26 106 -5z
m-1766 -25 c0 -9 -21 -16 -70 -23 -16 -2 -6 -6 28 -11 67 -10 67 -33 2 -58
l-45 -17 54 6 c43 5 53 3 49 -8 -5 -16 -108 -35 -134 -25 -28 11 -10 38 36 56
l45 18 -40 7 c-60 10 -65 13 -65 34 0 15 8 21 33 24 64 8 107 7 107 -3z m1726
-121 c25 -7 43 -16 41 -23 -4 -11 -14 -11 -78 0 -35 6 -37 5 -44 -25 -8 -39
-25 -40 -25 -2 0 64 18 72 106 50z m-1704 -51 c-18 -18 -14 -46 8 -58 39 -21
21 -31 -52 -28 -58 2 -73 6 -76 19 -4 22 108 103 122 89 7 -7 6 -14 -2 -22z"/>
<path d="M1000 2005 c0 -18 4 -23 15 -19 17 7 17 7 9 28 -9 24 -24 19 -24 -9z"/>
<path d="M704 1936 c-15 -12 -16 -17 -7 -27 10 -10 15 -9 28 1 16 13 21 40 7
40 -5 0 -17 -6 -28 -14z"/>
<path d="M1626 1897 c-16 -11 -16 -15 -3 -25 12 -10 16 -8 20 10 8 28 5 31
-17 15z"/>
<path d="M2018 1279 c-27 -15 -23 -57 6 -65 48 -12 86 32 54 64 -15 15 -37 15
-60 1z"/>
<path d="M2010 1099 c-20 -36 29 -71 70 -49 22 12 26 40 8 58 -20 20 -66 15
-78 -9z"/>
<path d="M296 885 c-19 -14 -19 -15 7 -15 17 0 27 5 27 15 0 19 -9 19 -34 0z"/>
<path d="M1316 2034 c-20 -19 -21 -58 -1 -74 14 -11 55 -6 55 8 0 4 3 16 6 28
3 13 -1 28 -11 38 -20 20 -29 20 -49 0z"/>
<path d="M1130 1814 c-14 -8 -42 -14 -62 -14 -30 0 -38 -4 -38 -19 0 -10 -7
-24 -15 -31 -11 -9 -18 -8 -36 9 -28 26 -40 26 -72 1 -14 -11 -37 -20 -51 -20
-16 0 -26 -6 -26 -14 0 -8 -19 -30 -41 -50 -29 -25 -40 -40 -35 -52 10 -27
-11 -45 -40 -33 -37 14 -40 12 -64 -26 -12 -19 -33 -38 -46 -41 -18 -5 -24
-13 -24 -33 0 -14 -9 -41 -20 -58 l-20 -33 22 -20 c26 -24 18 -35 -32 -47 -32
-8 -36 -13 -41 -51 -3 -23 -12 -49 -20 -59 -10 -12 -15 -39 -15 -82 1 -62 2
-64 31 -74 43 -14 49 -29 19 -53 -25 -20 -26 -24 -16 -69 11 -53 3 -88 -25
-104 -27 -15 -6 -30 52 -37 60 -8 75 -24 75 -81 0 -38 3 -43 23 -43 39 -1 67
-33 67 -79 l0 -41 48 31 c26 16 71 37 101 45 l53 16 -76 42 c-125 67 -161 134
-191 350 -9 67 -24 130 -40 164 -14 30 -25 55 -25 57 0 1 28 -2 62 -7 35 -4
89 -21 121 -36 31 -16 57 -26 57 -22 0 3 -14 26 -32 50 l-32 43 62 -5 62 -6 0
154 c0 85 3 154 7 154 3 0 66 -38 138 -85 73 -47 135 -85 138 -85 4 0 64 38
135 85 71 47 132 85 136 85 3 0 6 -67 6 -150 l0 -150 75 0 75 0 -30 -42 c-17
-22 -29 -43 -27 -44 1 -2 25 8 53 22 49 24 169 52 179 42 3 -3 -6 -28 -20 -55
-17 -35 -31 -90 -43 -180 -30 -207 -72 -278 -203 -346 l-66 -35 51 -5 c30 -4
83 -23 130 -46 l78 -40 -7 45 c-8 53 6 74 66 104 31 17 35 22 31 49 -3 25 0
32 19 40 13 5 33 18 44 30 16 18 17 25 7 41 -15 25 -15 67 -1 109 9 26 8 35
-5 50 -23 25 -20 40 9 51 22 8 25 16 27 67 1 32 1 67 -1 78 -12 105 -17 115
-58 115 -25 0 -32 27 -12 47 8 8 5 22 -10 51 -12 23 -21 52 -21 66 0 17 -7 26
-24 30 -13 3 -33 22 -45 41 -20 35 -43 43 -71 25 -20 -13 -41 7 -34 34 4 17
-4 29 -35 54 -23 18 -41 39 -41 47 0 10 -10 15 -29 15 -15 0 -40 9 -54 20 -35
28 -52 25 -81 -12 l-25 -32 -16 42 c-17 42 -17 42 -69 42 -29 0 -56 4 -61 8
-6 5 -21 3 -35 -4z m50 -59 c38 -11 79 -55 91 -97 20 -76 -23 -152 -103 -177
-105 -34 -214 76 -179 182 15 44 61 87 103 97 33 8 43 7 88 -5z"/>
<path d="M1439 1246 c-2 -2 -26 -6 -54 -9 -63 -8 -93 -16 -125 -36 -14 -8 -26
-16 -27 -16 -2 -1 6 -19 16 -41 63 -133 71 -163 71 -259 0 -75 -12 -128 -45
-210 -8 -18 -7 -19 11 -6 92 69 109 110 122 291 5 69 16 141 24 160 9 19 22
56 30 83 14 44 14 47 -2 47 -9 0 -19 -2 -21 -4z"/>
<path d="M820 1238 c0 -2 11 -39 25 -83 16 -51 29 -125 36 -205 12 -140 28
-187 80 -238 36 -35 89 -68 89 -55 0 5 -9 22 -20 38 -59 89 -72 260 -28 380
14 39 29 78 33 87 8 20 -33 44 -110 64 -44 12 -105 19 -105 12z"/>
<path d="M620 1211 c0 -5 5 -22 11 -37 5 -16 17 -76 25 -134 18 -131 26 -160
59 -215 32 -56 161 -145 186 -129 5 3 9 0 9 -5 0 -6 5 -11 12 -11 6 0 2 10
-10 23 -41 43 -61 108 -71 232 -14 167 -21 187 -79 224 -26 17 -67 37 -91 46
-51 18 -51 18 -51 6z"/>
<path d="M1094 1174 c-77 -131 -96 -278 -52 -402 30 -86 79 -142 123 -142 27
0 37 6 54 36 59 99 76 229 45 335 -24 82 -109 219 -135 219 -5 0 -20 -21 -35
-46z"/>
<path d="M1630 1213 c-52 -18 -123 -59 -140 -80 -24 -30 -37 -98 -46 -231 -5
-85 -11 -114 -34 -158 -15 -30 -25 -54 -23 -54 2 0 30 13 62 30 118 59 152
116 181 309 11 69 24 141 29 159 10 33 5 37 -29 25z"/>
<path d="M1794 762 c4 -7 15 -12 24 -12 28 0 62 -29 62 -54 0 -38 -19 -46
-106 -46 -46 0 -85 -4 -88 -9 -3 -4 11 -19 31 -32 47 -31 60 -68 39 -110 -17
-34 -21 -132 -10 -226 6 -49 9 -53 33 -53 50 0 58 16 69 148 5 68 12 125 14
128 3 2 67 -18 143 -46 75 -28 139 -49 141 -48 2 2 -17 35 -41 73 -24 39 -41
73 -37 76 4 4 41 21 82 39 41 17 78 35 83 39 4 4 -88 36 -205 71 -117 34 -219
65 -227 68 -9 3 -12 1 -7 -6z"/>
<path d="M285 697 c-110 -33 -202 -62 -205 -64 -7 -6 18 -20 90 -50 36 -14 69
-30 73 -34 5 -4 -7 -31 -26 -61 -66 -104 -71 -101 71 -48 70 26 136 50 148 54
20 6 21 1 33 -126 7 -79 17 -136 24 -140 15 -9 69 -10 92 -2 14 6 16 23 14
113 -1 96 -4 109 -25 134 -34 40 -31 82 7 118 17 16 36 29 41 29 5 0 8 5 6 11
-2 7 -38 14 -88 16 -47 3 -91 10 -97 15 -31 25 -6 66 52 86 20 7 23 10 10 10
-11 0 -110 -27 -220 -61z"/>
<path d="M1767 714 c-16 -17 -4 -24 40 -24 31 0 44 3 37 10 -13 13 -67 23 -77
14z"/>
<path d="M477 703 c-15 -15 -5 -23 28 -23 26 0 33 3 29 15 -6 15 -45 21 -57 8z"/>
<path d="M608 569 c-18 -10 -24 -45 -10 -65 4 -6 17 -16 30 -23 22 -11 22 -11
22 44 0 57 -7 65 -42 44z"/>
<path d="M1690 530 c0 -28 2 -50 5 -50 2 0 12 11 21 25 17 26 12 60 -11 69
-12 4 -15 -5 -15 -44z"/>
<path d="M1612 514 c-62 -49 -137 -68 -236 -61 -45 3 -90 9 -101 12 -19 6 -20
2 -17 -64 4 -70 4 -71 31 -71 47 0 173 40 274 87 l97 46 0 44 c0 23 -1 43 -2
42 -2 0 -22 -16 -46 -35z"/>
<path d="M672 505 c-2 -33 0 -36 59 -65 62 -32 267 -103 327 -114 l32 -5 0 78
0 79 -47 -14 c-105 -32 -241 -9 -331 54 -16 12 -32 22 -34 22 -2 0 -5 -16 -6
-35z"/>
<path d="M1604 396 c-294 -152 -591 -150 -906 6 -32 15 -60 28 -63 28 -11 0
-1 -261 10 -269 20 -16 212 -79 308 -101 84 -19 116 -22 220 -17 136 6 217 25
415 97 l122 45 0 51 c0 75 -12 204 -19 203 -3 -1 -42 -20 -87 -43z m-19 -75
c-10 -17 16 -60 34 -54 13 5 14 4 3 -8 -10 -11 -16 -11 -32 -1 -12 7 -21 8
-25 2 -9 -15 -25 -12 -25 5 0 8 -7 15 -16 15 -10 0 -14 -5 -10 -15 3 -8 9 -22
12 -31 6 -13 0 -15 -27 -12 -22 2 -33 8 -31 16 1 8 -3 12 -10 9 -8 -2 -12 -17
-10 -38 2 -23 0 -30 -6 -20 -6 8 -18 11 -33 6 l-24 -6 25 20 c19 16 21 21 8
21 -36 0 -47 -11 -41 -41 5 -27 3 -29 -26 -29 -37 0 -43 25 -8 41 19 8 18 9
-8 4 -47 -10 -17 9 49 31 32 10 89 36 125 56 68 38 86 45 76 29z m-830 -24 c0
-10 11 -25 25 -32 14 -8 19 -14 13 -15 -7 0 -13 -6 -13 -13 0 -26 -21 -36 -41
-19 -29 25 -24 45 8 39 26 -5 26 -4 8 9 -28 21 -42 17 -60 -13 -16 -27 -16
-27 -10 -3 3 14 7 32 8 40 4 34 62 40 62 7z m94 -58 c24 -9 31 -16 25 -28 -3
-9 -8 -23 -11 -32 -4 -13 -11 -15 -31 -10 -32 9 -39 32 -18 54 12 12 13 17 3
20 -24 10 1 7 32 -4z m486 -6 c-31 -8 -35 -15 -26 -56 11 -44 0 -49 -16 -7
-17 46 -7 70 31 69 21 -1 24 -3 11 -6z m-415 -22 c0 -6 -4 -13 -10 -16 -5 -3
-10 -15 -10 -26 0 -10 -5 -19 -11 -19 -7 0 -9 9 -5 23 3 12 6 28 6 35 0 6 7
12 15 12 8 0 15 -4 15 -9z m265 -1 c3 -5 -3 -10 -14 -10 -18 0 -21 -6 -21 -47
0 -55 -13 -49 -19 10 -1 4 -5 7 -11 7 -5 0 -10 -14 -10 -31 0 -17 -4 -28 -10
-24 -5 3 -10 22 -10 41 0 27 4 34 19 34 10 0 24 7 31 15 14 17 36 20 45 5z
m-165 -30 c0 -13 -7 -20 -20 -20 -11 0 -20 -5 -20 -10 0 -6 7 -10 16 -8 10 2
18 -5 19 -15 3 -15 0 -15 -26 4 -35 25 -37 39 -6 47 22 6 22 6 -3 13 -23 6
-23 7 8 8 26 1 32 -3 32 -19z m60 -6 c0 -9 -9 -18 -20 -21 -11 -3 -20 -10 -20
-15 0 -5 9 -6 20 -3 16 5 20 2 20 -17 0 -13 -4 -18 -8 -12 -4 6 -15 13 -24 17
-10 3 -18 16 -18 27 0 12 7 20 18 21 14 0 14 2 -3 9 -18 8 -17 9 8 9 18 1 27
-4 27 -15z m147 -19 c2 -19 -2 -35 -7 -35 -6 0 -10 9 -10 20 0 13 -5 18 -16
13 -8 -3 -13 -12 -10 -20 3 -8 1 -11 -4 -8 -18 11 -11 35 13 46 l22 10 -22 -5
c-13 -2 -26 0 -29 5 -3 5 10 9 28 9 31 0 33 -3 35 -35z"/>
<path d="M1550 284 c0 -8 5 -12 10 -9 6 3 10 10 10 16 0 5 -4 9 -10 9 -5 0
-10 -7 -10 -16z"/>
<path d="M1489 268 c-6 -21 -5 -38 2 -38 5 0 9 9 9 20 0 16 -7 28 -11 18z"/>
<path d="M1335 180 c-3 -5 -2 -10 4 -10 5 0 13 5 16 10 3 6 2 10 -4 10 -5 0
-13 -4 -16 -10z"/>
<path d="M720 300 c0 -5 7 -10 16 -10 8 0 12 5 9 10 -3 6 -10 10 -16 10 -5 0
-9 -4 -9 -10z"/>
<path d="M730 240 c0 -5 7 -10 16 -10 8 0 12 5 9 10 -3 6 -10 10 -16 10 -5 0
-9 -4 -9 -10z"/>
<path d="M833 201 c10 -12 9 -14 -6 -8 -11 4 -16 3 -12 -3 10 -16 32 -11 37 8
4 12 -1 18 -13 18 -14 0 -16 -3 -6 -15z"/>
</g>
</svg>
